<?xml version="1.0" encoding="UTF-8" standalone="no"?>
<!-- Created with Inkscape (http://www.inkscape.org/) -->

<svg
   xmlns:dc="http://purl.org/dc/elements/1.1/"
   xmlns:cc="http://creativecommons.org/ns#"
   xmlns:rdf="http://www.w3.org/1999/02/22-rdf-syntax-ns#"
   xmlns:svg="http://www.w3.org/2000/svg"
   xmlns="http://www.w3.org/2000/svg"
   xmlns:xlink="http://www.w3.org/1999/xlink"
   xmlns:sodipodi="http://sodipodi.sourceforge.net/DTD/sodipodi-0.dtd"
   xmlns:inkscape="http://www.inkscape.org/namespaces/inkscape"
   width="210mm"
   height="297mm"
   viewBox="0 0 210 297"
   version="1.1"
   id="svg8"
   enable-background="new"
   inkscape:version="0.92.4 (5da689c313, 2019-01-14)"
   sodipodi:docname="drawing.svg">
  <defs
     id="defs2">
    <filter
       inkscape:collect="always"
       style="color-interpolation-filters:sRGB"
       id="filter939">
      <feBlend
         inkscape:collect="always"
         mode="exclusion"
         in2="BackgroundImage"
         id="feBlend941" />
    </filter>
    <clipPath
       clipPathUnits="userSpaceOnUse"
       id="clipPath895">
      <use
         x="0"
         y="0"
         xlink:href="#g891"
         id="use897"
         width="100%"
         height="100%"
         transform="translate(-245.58872,32.918487)" />
    </clipPath>
  </defs>
  <sodipodi:namedview
     id="base"
     pagecolor="#ffffff"
     bordercolor="#666666"
     borderopacity="1.0"
     inkscape:pageopacity="0.0"
     inkscape:pageshadow="2"
     inkscape:zoom="1"
     inkscape:cx="360.79842"
     inkscape:cy="795.45717"
     inkscape:document-units="px"
     inkscape:current-layer="layer6"
     showgrid="false"
     showborder="true"
     inkscape:snap-midpoints="true"
     inkscape:snap-smooth-nodes="true"
     inkscape:snap-intersection-paths="true"
     inkscape:object-paths="true"
     inkscape:snap-bbox="false"
     inkscape:bbox-paths="true"
     inkscape:bbox-nodes="true"
     inkscape:snap-bbox-edge-midpoints="true"
     inkscape:snap-bbox-midpoints="true"
     inkscape:window-width="1920"
     inkscape:window-height="1051"
     inkscape:window-x="-9"
     inkscape:window-y="-9"
     inkscape:window-maximized="1"
     inkscape:snap-nodes="false" />
  <metadata
     id="metadata5">
    <rdf:RDF>
      <cc:Work
         rdf:about="">
        <dc:format>image/svg+xml</dc:format>
        <dc:type
           rdf:resource="http://purl.org/dc/dcmitype/StillImage" />
        <dc:title></dc:title>
      </cc:Work>
    </rdf:RDF>
  </metadata>
  <g
     inkscape:label="wheels"
     inkscape:groupmode="layer"
     id="layer1"
     style="display:inline;opacity:1;filter:url(#filter939)">1=&quot;&quot; /&gt;
    </g>
  <g
     inkscape:groupmode="layer"
     id="layer2"
     inkscape:label="body"
     style="display:inline" />
  <g
     inkscape:groupmode="layer"
     id="layer5"
     inkscape:label="evil"
     style="display:inline;opacity:0.68900003" />
  <g
     inkscape:groupmode="layer"
     id="layer3"
     inkscape:label="loght"
     style="display:inline" />
  <g
     inkscape:groupmode="layer"
     id="layer4"
     inkscape:label="mirroe"
     style="opacity:1" />
  <g
     inkscape:groupmode="layer"
     id="layer6"
     inkscape:label="moth">
    <g
       id="g1043"
       transform="matrix(0.33049279,0,0,0.32740938,102.42973,77.83104)">
      <rect
         y="230.85315"
         x="-170.69937"
         height="78.412636"
         width="39.206318"
         id="rect815"
         style="display:inline;opacity:0.49000005;fill:#000000;stroke:#000000;stroke-width:15.95606136;stroke-linecap:round;stroke-linejoin:round;stroke-miterlimit:4;stroke-dasharray:none;stroke-opacity:1;paint-order:stroke fill markers;filter:url(#filter939)" />
      <rect
         y="230.85315"
         x="148.86621"
         height="78.412636"
         width="39.206318"
         id="rect836"
         style="display:inline;opacity:0.49000005;fill:#000000;stroke:#000000;stroke-width:15.95606136;stroke-linecap:round;stroke-linejoin:round;stroke-miterlimit:4;stroke-dasharray:none;stroke-opacity:1;paint-order:stroke fill markers;filter:url(#filter939)" />
      <path
         inkscape:connector-curvature="0"
         id="rect826"
         d="M 10.47688,-94.789777 A 254.81054,228.36284 0 0 0 -230.48464,60.027389 V 206.96794 a 254.81054,228.36284 0 0 0 37.0551,62.99423 v -88.00763 h 87.50164 V 289.51668 H 119.93325 V 181.95454 h 87.50163 v 95.67423 a 254.81054,228.36284 0 0 0 44.00403,-70.51014 V 60.178747 A 254.81054,228.36284 0 0 0 10.47688,-94.789777 Z"
         style="display:inline;opacity:0.49000005;fill:#00ff00;stroke:none;stroke-width:1.50271249;stroke-miterlimit:4;stroke-dasharray:none;stroke-opacity:0.56828194" />
      <path
         transform="scale(0.26458333)"
         id="path1014"
         d="m -507.94141,-470.97852 a 774.56666,351.19632 0 0 0 -241.84961,254.69336 774.56666,351.19632 0 0 0 69.03516,144.169926 963.06342,303.2964 0 0 1 9.79883,-3.251954 963.06346,863.10364 0 0 1 96.86328,-83.761722 663.50857,315.00524 0 0 1 -58.58984,-128.45703 663.50857,315.00524 0 0 1 124.74218,-183.39258 z m 1101.3418,16.7129 a 663.50857,315.00524 0 0 1 100.93359,166.67968 663.50857,315.00524 0 0 1 -52.04687,121.38477 963.06346,863.10364 0 0 1 97.96875,81.289061 963.06342,303.2964 0 0 1 1.8418,0.548828 774.56666,351.19632 0 0 0 57.24414,-131.921879 774.56666,351.19632 0 0 0 -205.94141,-237.98046 z"
         style="display:inline;opacity:1;fill:#000000;stroke:none;stroke-width:3.36678648;stroke-miterlimit:4;stroke-dasharray:none;stroke-opacity:0.56828194;fill-opacity:1"
         inkscape:connector-curvature="0" />
      <circle
         r="33.206436"
         cy="122.03555"
         cx="-149.67857"
         id="path973"
         style="display:inline;opacity:1;fill:#ffffff;fill-opacity:1;stroke:none;stroke-width:1.32291663;stroke-miterlimit:4;stroke-dasharray:none;stroke-opacity:0.56828194" />
      <circle
         style="display:inline;opacity:1;fill:#ffffff;fill-opacity:1;stroke:none;stroke-width:1.32291663;stroke-miterlimit:4;stroke-dasharray:none;stroke-opacity:0.56828194"
         id="circle975"
         cx="162.98366"
         cy="123.43655"
         r="33.206436" />
      <g
         id="g961"
         style="display:inline">
        <ellipse
           cy="123.53226"
           cx="-143.50465"
           id="circle950"
           style="opacity:1;fill:#835a62;fill-opacity:1;stroke:none;stroke-width:0.86970931;stroke-miterlimit:4;stroke-dasharray:none;stroke-opacity:0.56828194"
           rx="18.800608"
           ry="25.348711" />
        <ellipse
           style="opacity:1;fill:#ffffff;fill-opacity:1;stroke:none;stroke-width:7.55127239;stroke-linecap:round;stroke-linejoin:round;stroke-miterlimit:4;stroke-dasharray:none;stroke-opacity:1;paint-order:stroke fill markers"
           id="path956"
           cx="-137.69725"
           cy="129.36856"
           rx="5.238483"
           ry="5.9868374" />
      </g>
      <g
         transform="translate(315.05731,1.8708867)"
         id="g967"
         style="display:inline">
        <ellipse
           ry="25.348711"
           rx="18.800608"
           style="opacity:1;fill:#835a62;fill-opacity:1;stroke:none;stroke-width:0.86970931;stroke-miterlimit:4;stroke-dasharray:none;stroke-opacity:0.56828194"
           id="ellipse963"
           cx="-143.50465"
           cy="123.53226" />
        <ellipse
           ry="5.9868374"
           rx="5.238483"
           cy="129.36856"
           cx="-137.69725"
           id="ellipse965"
           style="opacity:1;fill:#ffffff;fill-opacity:1;stroke:none;stroke-width:7.55127239;stroke-linecap:round;stroke-linejoin:round;stroke-miterlimit:4;stroke-dasharray:none;stroke-opacity:1;paint-order:stroke fill markers" />
      </g>
      <path
         inkscape:connector-curvature="0"
         id="rect1003"
         d="m 270.00512,48.150951 -3.49034,19.97604 h -14.7361 l -1.61804,9.26042 h 14.7361 l -3.49034,19.97604 h 11.38698 l 3.49035,-19.97604 1.61804,-9.26042 3.49034,-19.97604 z"
         style="opacity:1;fill:#00ad99;fill-opacity:1;stroke:none;stroke-width:1.05244923;stroke-miterlimit:4;stroke-dasharray:none;stroke-opacity:0.56828194" />
      <path
         transform="scale(0.26458333)"
         id="path1039"
         d="m 59.396484,-299.33203 c -120.238147,2.23531 -241.425334,25.14492 -346.617184,74.91797 -92.1069,35.63486 -345.42823,263.608612 -382.375,420.87109 H 59.396484 788.38867 C 751.4419,39.194553 498.12057,-188.7792 406.01367,-224.41406 300.82184,-274.18711 179.63464,-297.09672 59.396484,-299.33203 Z"
         style="display:inline;opacity:1;fill:#ffffff;stroke:none;stroke-width:0;stroke-linecap:butt;stroke-linejoin:miter;stroke-miterlimit:4;stroke-dasharray:none;stroke-opacity:1"
         inkscape:connector-curvature="0" />
      <g
         transform="matrix(1.0104362,0,0,0.62938252,246.94049,38.853781)"
         inkscape:label="Clip"
         id="g891">
        <path
           inkscape:connector-curvature="0"
           id="path871"
           d="m -138.26887,200.59451 c -58.79349,0.17587 -117.58697,0.35175 -176.38046,0.52762 -6.16799,13.91475 -10.63188,28.80068 -11.24945,44.08619 51.25837,-0.15314 102.51676,-0.30625 153.77512,-0.45939 13.04602,-13.2433 24.55987,-28.04248 33.85479,-44.15442 z m -41.02852,51.09767 c -48.8398,0.14988 -97.70594,0.28403 -146.52955,0.44389 0.026,17.75147 10.25776,35.94528 27.33839,42.1504 23.12712,8.587 48.75681,1.31482 70.13112,-8.72816 17.98521,-8.64417 34.41552,-20.35804 49.06004,-33.86613 z"
           style="color:#000000;font-style:normal;font-variant:normal;font-weight:normal;font-stretch:normal;font-size:medium;line-height:normal;font-family:sans-serif;font-variant-ligatures:normal;font-variant-position:normal;font-variant-caps:normal;font-variant-numeric:normal;font-variant-alternates:normal;font-feature-settings:normal;text-indent:0;text-align:start;text-decoration:none;text-decoration-line:none;text-decoration-style:solid;text-decoration-color:#000000;letter-spacing:normal;word-spacing:normal;text-transform:none;writing-mode:lr-tb;direction:ltr;text-orientation:mixed;dominant-baseline:auto;baseline-shift:baseline;text-anchor:start;white-space:normal;shape-padding:0;clip-rule:nonzero;display:inline;overflow:visible;visibility:visible;opacity:1;isolation:auto;mix-blend-mode:normal;color-interpolation:sRGB;color-interpolation-filters:linearRGB;solid-color:#000000;solid-opacity:1;vector-effect:none;fill:#ffffff;fill-opacity:1;fill-rule:nonzero;stroke:none;stroke-width:6.63761044;stroke-linecap:round;stroke-linejoin:round;stroke-miterlimit:4;stroke-dasharray:none;stroke-dashoffset:0;stroke-opacity:1;paint-order:stroke fill markers;color-rendering:auto;image-rendering:auto;shape-rendering:auto;text-rendering:auto;enable-background:accumulate" />
        <path
           inkscape:connector-curvature="0"
           id="path873"
           d="m -132.62478,193.65592 c -37.26543,0.11153 -74.53088,0.22333 -111.79627,0.33486 -24.48111,0.25727 -49.06992,-0.22013 -73.48443,0.49299 -4.87238,5.23171 -5.88607,13.46347 -8.72916,19.9378 -8.04682,24.77449 -9.87295,56.12053 9.85727,75.98605 19.68182,18.86355 50.05279,16.85393 74.03372,8.56538 47.17809,-16.96772 85.98641,-53.41297 110.87283,-96.42615 2.54407,-2.14805 3.94287,-8.51661 -0.75396,-8.89093 z m -5.64409,6.93859 c -1.16187,2.01399 -2.35855,4.00749 -3.58844,5.97999 -1.22986,1.9725 -2.49269,3.92388 -3.78788,5.85391 -1.29516,1.93005 -2.62229,3.8386 -3.9801,5.72524 -1.35782,1.88663 -2.74632,3.75168 -4.16409,5.59398 -1.41777,1.84229 -2.86528,3.66209 -4.34031,5.45909 -1.47505,1.797 -2.97759,3.5709 -4.50723,5.32164 -1.52961,1.75075 -3.08586,3.47856 -4.66741,5.18211 -1.58152,1.70357 -3.1886,3.38304 -4.81933,5.03846 -51.25836,0.15314 -102.51675,0.30625 -153.77512,0.45939 0.0772,-1.91069 0.21453,-3.81521 0.40773,-5.7123 0.19322,-1.89709 0.44225,-3.78664 0.74311,-5.66788 0.30085,-1.88124 0.65354,-3.75404 1.05367,-5.61723 0.40013,-1.86317 0.84791,-3.71697 1.33895,-5.55985 0.49104,-1.8429 1.02529,-3.67493 1.59888,-5.49529 0.57356,-1.82033 1.18623,-3.62889 1.83399,-5.42446 0.64775,-1.7956 1.33074,-3.57839 2.04433,-5.34697 0.71355,-1.76858 1.4578,-3.52287 2.22879,-5.26221 58.79349,-0.17587 117.58697,-0.35175 176.38046,-0.52762 z m -41.02852,51.09767 c -1.83057,1.68849 -3.68892,3.34906 -5.57485,4.979 -1.88592,1.62997 -3.79933,3.22916 -5.73971,4.79558 -1.94037,1.56641 -3.90803,3.09978 -5.90195,4.59766 -1.99393,1.49789 -4.01405,2.96037 -6.06063,4.38476 -2.04658,1.42435 -4.11938,2.81096 -6.21771,4.15684 -2.0983,1.34588 -4.22201,2.65104 -6.37116,3.91345 -2.14919,1.26241 -4.32404,2.48216 -6.52312,3.65612 -2.19911,1.17395 -4.42277,2.30222 -6.67091,3.38272 -2.67179,1.25537 -5.41002,2.46743 -8.20158,3.61064 -1.39579,0.5716 -2.8048,1.12585 -4.22558,1.65984 -1.42079,0.534 -2.85338,1.04793 -4.29586,1.53789 -1.44248,0.48998 -2.89494,0.95623 -4.35581,1.39578 -1.46087,0.43958 -2.92997,0.8523 -4.40594,1.23507 -1.47596,0.38278 -2.95897,0.73565 -4.44675,1.05524 -1.48775,0.31959 -2.98045,0.60577 -4.47672,0.85577 -1.49628,0.25001 -2.99596,0.46363 -4.49742,0.63767 -1.50146,0.17405 -3.00487,0.30882 -4.50823,0.4005 -1.50337,0.0917 -3.00683,0.14021 -4.50877,0.14314 -1.50196,0.003 -3.00223,-0.0401 -4.49948,-0.13229 -1.49725,-0.0922 -2.99108,-0.23363 -4.48034,-0.42735 -1.48926,-0.19376 -2.97397,-0.4399 -4.45194,-0.74158 -1.47793,-0.30165 -2.94928,-0.65886 -4.41264,-1.07487 -1.46336,-0.41598 -2.91862,-0.89061 -4.36406,-1.42729 -1.06754,-0.38783 -2.10857,-0.82225 -3.12179,-1.30069 -1.0132,-0.47845 -1.99864,-1.00074 -2.95588,-1.56375 -0.95726,-0.563 -1.88624,-1.16718 -2.78587,-1.80866 -0.89967,-0.64148 -1.7698,-1.32059 -2.6102,-2.03451 -0.84039,-0.7139 -1.65081,-1.46249 -2.43033,-2.24274 -0.77951,-0.78026 -1.52834,-1.5919 -2.24533,-2.43242 -0.717,-0.84053 -1.40235,-1.70974 -2.05518,-2.60448 -0.65283,-0.89475 -1.2728,-1.8151 -1.85983,-2.75799 -0.58703,-0.94287 -1.14078,-1.90842 -1.66037,-2.89335 -0.51959,-0.98494 -1.00521,-1.98922 -1.45574,-3.01017 -0.4505,-1.02095 -0.86611,-2.05848 -1.24589,-3.10936 -0.37981,-1.05087 -0.72404,-2.11526 -1.03148,-3.19 -0.30745,-1.07471 -0.57838,-2.15998 -0.81182,-3.25249 -0.23347,-1.09252 -0.42924,-2.19221 -0.58706,-3.29645 -0.15782,-1.10424 -0.27757,-2.21292 -0.35811,-3.32279 -0.0805,-1.10991 -0.1219,-2.22108 -0.12351,-3.33055 48.82361,-0.15986 97.68975,-0.29401 146.52955,-0.44389 z"
           style="color:#000000;font-style:normal;font-variant:normal;font-weight:normal;font-stretch:normal;font-size:medium;line-height:normal;font-family:sans-serif;font-variant-ligatures:normal;font-variant-position:normal;font-variant-caps:normal;font-variant-numeric:normal;font-variant-alternates:normal;font-feature-settings:normal;text-indent:0;text-align:start;text-decoration:none;text-decoration-line:none;text-decoration-style:solid;text-decoration-color:#000000;letter-spacing:normal;word-spacing:normal;text-transform:none;writing-mode:lr-tb;direction:ltr;text-orientation:mixed;dominant-baseline:auto;baseline-shift:baseline;text-anchor:start;white-space:normal;shape-padding:0;clip-rule:nonzero;display:inline;overflow:visible;visibility:visible;opacity:0.49000005;isolation:auto;mix-blend-mode:normal;color-interpolation:sRGB;color-interpolation-filters:linearRGB;solid-color:#000000;solid-opacity:1;vector-effect:none;fill:#5ca200;fill-opacity:1;fill-rule:nonzero;stroke:none;stroke-width:6.63761044;stroke-linecap:round;stroke-linejoin:round;stroke-miterlimit:4;stroke-dasharray:none;stroke-dashoffset:0;stroke-opacity:1;paint-order:stroke fill markers;color-rendering:auto;image-rendering:auto;shape-rendering:auto;text-rendering:auto;enable-background:accumulate" />
      </g>
      <path
         style="opacity:1;fill:#00ad99;fill-opacity:1;stroke:none;stroke-width:1.05244923;stroke-miterlimit:4;stroke-dasharray:none;stroke-opacity:0.56828194"
         d="m -248.47102,48.150951 3.49034,19.97604 h 14.7361 l 1.61804,9.26042 h -14.7361 l 3.49034,19.97604 h -11.38698 l -3.49035,-19.97604 -1.61804,-9.26042 -3.49034,-19.97604 z"
         id="path1045"
         inkscape:connector-curvature="0" />
    </g>
  </g>
</svg>
